<svg width="143" height="73" viewBox="0 0 143 73" fill="none" xmlns="http://www.w3.org/2000/svg">
<path d="M71.4766 72.0957C106.127 72.0957 134.217 60.5148 134.217 46.229C134.217 31.9432 106.127 20.3623 71.4766 20.3623C36.826 20.3623 8.73615 31.9432 8.73615 46.229C8.73615 60.5148 36.826 72.0957 71.4766 72.0957Z" fill="#272D2F" stroke="#272D2F" stroke-linecap="round" stroke-linejoin="round"/>
<path d="M71.4765 68.5342C110.4 68.5342 141.953 56.9533 141.953 42.6675C141.953 28.3817 110.4 16.8008 71.4765 16.8008C32.5534 16.8008 1 28.3817 1 42.6675C1 56.9533 32.5534 68.5342 71.4765 68.5342Z" fill="white" stroke="#272D2F" stroke-width="2" stroke-linecap="round" stroke-linejoin="round"/>
<path d="M71.4765 59.6142C98.6602 59.6142 120.697 51.7573 120.697 42.0652C120.697 32.3731 98.6602 24.5161 71.4765 24.5161C44.2928 24.5161 22.2561 32.3731 22.2561 42.0652C22.2561 51.7573 44.2928 59.6142 71.4765 59.6142Z" fill="white" stroke="#272D2F" stroke-width="2" stroke-linecap="round" stroke-linejoin="round"/>
<path d="M114.371 25.9449C115.918 16.848 106.016 7.57654 92.2547 5.23662C78.4934 2.89671 66.0837 8.37438 64.5368 17.4714C62.99 26.5683 72.8919 35.8397 86.6532 38.1797C100.415 40.5196 112.824 35.0419 114.371 25.9449Z" fill="white" stroke="#272D2F" stroke-width="2" stroke-linecap="round" stroke-linejoin="round"/>
<path d="M95.8894 18.3585C95.5364 20.4353 92.7742 21.6191 89.659 21.0895C86.5438 20.5599 84.3631 18.4935 84.7058 16.4582C85.0485 14.423 87.821 13.1976 90.9362 13.7168C94.0514 14.236 96.2321 16.3232 95.8894 18.3585Z" fill="white" stroke="#272D2F" stroke-linecap="round" stroke-linejoin="round"/>
<path d="M49.8258 52.1167C64.0198 52.1167 75.5263 45.0175 75.5263 36.2603C75.5263 27.503 64.0198 20.4038 49.8258 20.4038C35.6318 20.4038 24.1252 27.503 24.1252 36.2603C24.1252 45.0175 35.6318 52.1167 49.8258 52.1167Z" fill="white" stroke="#272D2F" stroke-width="2" stroke-linecap="round" stroke-linejoin="round"/>
<path d="M52.8061 37.3198C68.7493 37.3198 81.6737 29.2443 81.6737 19.2827C81.6737 9.32108 68.7493 1.24561 52.8061 1.24561C36.8629 1.24561 23.9384 9.32108 23.9384 19.2827C23.9384 29.2443 36.8629 37.3198 52.8061 37.3198Z" fill="#272D2F" stroke="#272D2F" stroke-linecap="round" stroke-linejoin="round"/>
<path d="M35.1012 18.1508L39.1614 17.8496" stroke="white" stroke-linecap="round" stroke-linejoin="round"/>
<path d="M33.149 13.6333L35.8489 15.1389" stroke="white" stroke-linecap="round" stroke-linejoin="round"/>
<path d="M41.1135 11.0894L38.4033 12.1382" stroke="white" stroke-linecap="round" stroke-linejoin="round"/>
<path d="M34.1978 8.37939L37.8011 8.53514" stroke="white" stroke-linecap="round" stroke-linejoin="round"/>
<path d="M49.9712 6.58301L48.6213 7.77715" stroke="white" stroke-linecap="round" stroke-linejoin="round"/>
<path d="M42.3077 6.72803L45.9214 8.68022" stroke="white" stroke-linecap="round" stroke-linejoin="round"/>
<path d="M56.8869 6.58301L58.8391 8.23405" stroke="white" stroke-linecap="round" stroke-linejoin="round"/>
<path d="M65.7445 9.28271L61.9958 10.1861" stroke="white" stroke-linecap="round" stroke-linejoin="round"/>
<path d="M69.3478 13.9346L72.3592 14.3914" stroke="white" stroke-linecap="round" stroke-linejoin="round"/>
<path d="M69.5035 8.53516L73.5533 10.9338" stroke="white" stroke-linecap="round" stroke-linejoin="round"/>
<path d="M65.1422 4.47461L61.9958 4.61998" stroke="white" stroke-linecap="round" stroke-linejoin="round"/>
<path d="M49.67 3.27051H53.2733" stroke="white" stroke-linecap="round" stroke-linejoin="round"/>
<path d="M79.5657 16.9463L75.6613 17.9951" stroke="white" stroke-linecap="round" stroke-linejoin="round"/>
<path d="M76.7101 12.1382L77.9146 14.838" stroke="white" stroke-linecap="round" stroke-linejoin="round"/>
<path d="M72.6603 19.1992L69.8046 21.7537" stroke="white" stroke-linecap="round" stroke-linejoin="round"/>
<path d="M55.3813 21.7539L61.9959 22.6573" stroke="white" stroke-linecap="round" stroke-linejoin="round"/>
<path d="M63.4912 18.296L66.7934 17.5483" stroke="white" stroke-linecap="round" stroke-linejoin="round"/>
<path d="M42.0066 18.4414L46.6691 20.8505" stroke="white" stroke-linecap="round" stroke-linejoin="round"/>
<path d="M52.5256 24.3086L47.7178 25.0563" stroke="white" stroke-linecap="round" stroke-linejoin="round"/>
<path d="M58.3823 26.2607L59.8879 28.0572" stroke="white" stroke-linecap="round" stroke-linejoin="round"/>
<path d="M68.756 24.0073L65.5992 25.8038" stroke="white" stroke-linecap="round" stroke-linejoin="round"/>
<path d="M27.4377 16.188L28.1854 18.1506" stroke="white" stroke-linecap="round" stroke-linejoin="round"/>
<path d="M77.0112 22.0552L78.0704 23.2493" stroke="white" stroke-linecap="round" stroke-linejoin="round"/>
<path d="M58.3926 15.2639C58.3926 16.8007 55.9004 18.0468 52.8163 18.0468C49.7323 18.0468 47.2505 16.8007 47.2505 15.2639C47.2505 13.7271 49.7427 12.481 52.8163 12.481C55.89 12.481 58.3926 13.7271 58.3926 15.2639Z" fill="white" stroke="#272D2F" stroke-linecap="round" stroke-linejoin="round"/>
<path d="M52.8061 37.3197C65.9835 37.3197 77.084 31.8057 80.5419 24.2669C79.6677 24.3308 78.8259 24.6245 78.1017 25.1184C75.5264 27.0498 75.3084 29.407 73.1692 28.3271C71.0301 27.2471 69.5244 27.0498 66.5338 28.9709C63.5432 30.8919 61.1757 33.2595 56.6794 30.6842C52.1831 28.109 47.4687 28.9709 43.6058 31.1204C39.743 33.2699 36.7524 26.8318 36.337 23.187C35.9216 19.5422 31.415 22.9793 27.5521 21.9097C25.7453 21.4009 24.6965 19.4799 24.0838 17.5796C23.9972 18.1432 23.9521 18.7124 23.9488 19.2826C23.9384 29.2409 36.9185 37.3197 52.8061 37.3197Z" fill="white" stroke="#272D2F" stroke-width="2" stroke-linecap="round" stroke-linejoin="round"/>
<path d="M89.0257 58.7523C104.407 58.7523 116.876 50.6954 116.876 40.7568C116.876 30.8181 104.407 22.7612 89.0257 22.7612C73.6445 22.7612 61.1757 30.8181 61.1757 40.7568C61.1757 50.6954 73.6445 58.7523 89.0257 58.7523Z" fill="white" stroke="#272D2F" stroke-linecap="round" stroke-linejoin="round"/>
<path d="M89.0257 22.7612C73.6469 22.7612 61.1757 30.8192 61.1757 40.7568C61.213 43.5212 62.1376 46.2004 63.8132 48.3994C64.9753 48.7616 66.1728 48.9983 67.3853 49.1056C71.8816 49.5417 73.3873 45.035 78.5274 48.0672C83.6675 51.0993 85.5989 54.2976 90.521 51.2862C95.443 48.2748 98.0183 46.3538 101.871 48.2852C105.723 50.2167 106.803 48.711 108.517 46.1461C110.23 43.5813 110.23 43.1451 113.231 43.1451C116.066 43.1451 115.837 40.4556 116.533 37.9531C114.446 29.3655 102.93 22.7612 89.0257 22.7612Z" fill="#FE724C" stroke="#272D2F" stroke-linecap="round" stroke-linejoin="round"/>
<path d="M61.1757 40.7882C61.1757 41.2139 61.1757 41.6396 61.2483 42.055C66.6273 33.0832 74.8826 27.0189 80.5731 23.644C79.4516 23.8725 78.3716 24.1425 77.3125 24.4644C70.9328 28.5614 65.4503 33.9097 61.1964 40.1859C61.186 40.352 61.1757 40.5493 61.1757 40.7882Z" fill="white" stroke="#272D2F" stroke-width="0.5" stroke-linecap="round" stroke-linejoin="round"/>
<path d="M75.5472 47.0185C80.6353 32.8339 92.1616 26.7177 99.7939 24.1736C99.1916 24.0074 98.5789 23.862 97.9455 23.7271C90.1056 26.6554 79.2542 33.1246 74.4257 47.0704C74.7964 47.0113 75.1726 46.9939 75.5472 47.0185Z" fill="white" stroke="#272D2F" stroke-width="0.5" stroke-linecap="round" stroke-linejoin="round"/>
<path d="M91.1647 22.8235C90.4586 22.8235 89.7421 22.7612 89.0256 22.7612H88.3298C74.7371 28.3063 67.2814 38.9188 63.2835 47.6103C63.4497 47.8733 63.6262 48.1329 63.8131 48.3891L64.0312 48.4514C68.1225 39.3757 76.087 27.9948 91.1647 22.8235Z" fill="white" stroke="#272D2F" stroke-width="0.5" stroke-linecap="round" stroke-linejoin="round"/>
<path d="M116.253 37.0599C116.149 36.7415 116.035 36.4196 115.91 36.0942C109.42 38.306 104.207 42.7816 100.188 47.6413C100.543 47.7229 100.891 47.834 101.227 47.9736C105.121 43.3631 110.105 39.1575 116.253 37.0599Z" fill="white" stroke="#272D2F" stroke-width="0.5" stroke-linecap="round" stroke-linejoin="round"/>
<path d="M109.139 28.3268C108.755 28.0672 108.361 27.8283 107.956 27.5791C96.3879 30.7982 87.4368 38.2228 81.2168 49.7698L82.0786 50.3617C88.3298 38.7108 97.3847 31.3277 109.139 28.3268Z" fill="white" stroke="#272D2F" stroke-width="0.5" stroke-linecap="round" stroke-linejoin="round"/>
<path d="M112.898 31.5251C112.649 31.2552 112.41 30.9852 112.14 30.7256C103.224 34.5958 95.9784 41.5172 91.7046 50.2475C91.6423 50.3825 91.5904 50.5072 91.5281 50.6318L93.1999 49.5934C97.4979 41.4884 104.453 35.1087 112.898 31.5251V31.5251Z" fill="white" stroke="#272D2F" stroke-width="0.5" stroke-linecap="round" stroke-linejoin="round"/>
<path d="M94.8095 35.191C94.8095 36.3644 92.172 37.3301 88.9114 37.3301C85.6508 37.3301 83.0236 36.3644 83.0236 35.191C83.0236 34.0176 85.6612 33.0415 88.9114 33.0415C92.1616 33.0415 94.8095 34.0072 94.8095 35.191Z" fill="white" stroke="#272D2F" stroke-linecap="round" stroke-linejoin="round"/>
</svg>
