<svg width="213" height="363" viewBox="0 0 213 363" fill="none" xmlns="http://www.w3.org/2000/svg">
<path d="M88.583 13.7904C88.583 13.7904 75.6341 3.91515 66.7765 8.67104C57.9189 13.4269 65.0735 19.9066 65.0735 19.9066C65.0735 19.9066 58.2719 20.5815 59.2896 22.6272C59.8524 23.7157 60.308 24.8564 60.6499 26.0332C60.6499 26.0332 43.6304 29.1484 44.3158 33.8627C45.0011 38.5771 46.0188 38.9613 46.0188 38.9613C46.0188 38.9613 36.8289 41.6923 38.1892 45.4306C39.5495 49.1688 46.3511 50.1968 46.3511 50.1968C46.3511 50.1968 31.0346 59.3867 28.6982 70.6223C26.3618 81.8578 32.4364 79.4695 32.4364 79.4695C32.4364 79.4695 22.9143 87.6417 26.9952 92.0653C31.0761 96.4889 35.4997 95.1805 35.4997 95.1805C35.4997 95.1805 30.0585 107.434 32.4364 110.154C34.8144 112.875 37.2027 112.543 37.2027 112.543C37.2027 112.543 19.5498 123.436 26.9952 131.234C34.4406 139.032 40.6087 131.234 40.6087 131.234C40.6087 131.234 34.4821 144.505 41.294 146.208C48.106 147.911 49.4559 146.883 49.4559 146.883C49.4559 146.883 41.969 154.38 55.2502 156.415C68.5314 158.451 69.5386 156.415 69.5386 156.415C69.5386 156.415 66.1431 162.542 71.927 165.273C77.7109 168.004 81.7918 161.182 81.7918 161.182C81.7918 161.182 83.4948 164.93 91.3244 164.588C99.154 164.245 100.857 160.507 100.857 160.507C100.857 160.507 105.281 169.011 110.732 165.948C116.184 162.885 117.191 160.164 117.191 160.164C118.304 161.232 119.664 162.009 121.15 162.423C122.635 162.838 124.201 162.879 125.706 162.542L131.147 161.503C131.147 161.503 137.274 165.252 142.383 162.864C147.492 160.475 146.474 156.737 146.474 156.737C146.474 156.737 152.258 160.486 156.339 158.44C160.42 156.395 160.42 154.017 160.42 154.017C160.42 154.017 165.871 156.395 168.249 152.314C168.949 151.202 169.348 149.927 169.408 148.615C169.468 147.303 169.187 145.998 168.592 144.827C168.592 144.827 175.061 145.169 175.404 143.466C175.747 141.763 171.655 137.672 171.655 137.672C171.655 137.672 180.17 145.502 179.142 133.934C178.597 127.148 176.118 120.662 171.998 115.243C171.998 115.243 177.107 117.319 177.439 114.204C177.703 112.584 177.467 110.921 176.764 109.438C176.764 109.438 183.234 110.798 185.612 101.608C186.308 99.0393 186.191 96.3175 185.276 93.8179C184.361 91.3183 182.693 89.1641 180.503 87.6521C180.503 87.6521 188.332 83.2285 187.315 79.8225C186.297 76.4166 184.937 75.3989 184.937 75.3989C184.937 75.3989 190.035 71.993 186.297 69.615C183.52 67.9859 180.542 66.7258 177.439 65.8664C177.439 65.8664 186.972 65.5237 183.909 55.9912C180.845 46.4586 170.638 38.6394 168.249 37.6114C165.861 36.5834 177.782 33.8731 169.61 31.8275C161.438 29.7818 159.06 29.7507 159.06 29.7507C159.06 29.7507 166.214 23.6241 160.42 20.9034C154.626 18.1828 151.926 19.5743 151.926 19.5743C151.926 19.5743 154.003 14.4653 147.502 14.1227C141.002 13.78 137.284 16.511 137.284 16.511C137.284 16.511 140.015 4.25782 134.221 1.5372C128.427 -1.18342 118.863 10.7479 118.863 10.7479C118.863 10.7479 114.097 0.529949 111.033 3.59324C107.97 6.65654 107.97 9.04487 107.97 9.04487C107.97 9.04487 95.7168 -3.20831 91.2932 3.26095C86.8696 9.73022 88.583 13.7904 88.583 13.7904Z" fill="#272D2F" stroke="#272D2F" stroke-linecap="round" stroke-linejoin="round"/>
<path d="M195.196 251.315C195.196 251.315 205.933 288.438 208.695 294.928C211.457 301.418 210.419 307.731 198.311 311.189C186.203 314.647 178.228 306.693 175.809 296.652C173.389 286.61 161.967 255.811 161.967 255.811L195.196 251.315Z" fill="white" stroke="#272D2F" stroke-width="2" stroke-linecap="round" stroke-linejoin="round"/>
<path d="M195.196 251.315L161.967 255.811C161.967 255.811 163.556 260.1 165.674 266.008L198.654 263.194C196.671 256.434 195.196 251.315 195.196 251.315Z" fill="#272D2F" stroke="#272D2F" stroke-linecap="round" stroke-linejoin="round"/>
<path d="M19.3525 251.315C19.3525 251.315 -0.553755 304.793 1.09731 311.283C2.74837 317.773 14.5135 325.384 27.6597 322.612C40.8059 319.839 44.9699 297.005 45.6656 294.928C46.3614 292.851 56.735 254.773 56.735 254.773L19.3525 251.315Z" fill="white" stroke="#272D2F" stroke-width="2" stroke-linecap="round" stroke-linejoin="round"/>
<path d="M56.735 254.773L19.3524 251.315C19.3524 251.315 17.1925 257.109 14.3577 265.126L50.6499 277.036C53.5886 266.32 56.735 254.773 56.735 254.773Z" fill="#272D2F" stroke="#272D2F" stroke-linecap="round" stroke-linejoin="round"/>
<path d="M88.5829 129.521C88.5829 129.521 88.9256 153.684 86.5061 161.171C84.0866 168.658 75.9767 171.701 75.9767 171.701C75.9767 171.701 41.9378 164.214 35.1362 169.624C28.3347 175.034 22.5404 200.599 21.5124 204.68C20.4843 208.761 3.1326 257.099 3.1326 257.099C3.1326 257.099 17.4314 260.505 27.6389 263.226C37.8465 265.946 50.4839 267.992 50.4839 267.992L54.9075 309.175L37.5453 361.594H178.768L156.297 303.048L161.064 261.512L209.038 254.441C209.038 254.441 188.27 200.994 182.486 188.066C176.702 175.138 171.655 166.623 161.417 166.955C151.178 167.287 142.725 171.389 138.271 172.749C135.975 173.554 133.546 173.907 131.116 173.788C128.971 171.855 127.257 169.492 126.086 166.853C124.914 164.214 124.31 161.359 124.314 158.471C124.314 148.596 123.972 139.78 123.972 139.78C117.693 141.366 111.106 141.251 104.886 139.448C98.6669 137.645 93.0396 134.219 88.5829 129.521V129.521Z" fill="#FFC529" stroke="#272D2F" stroke-linecap="round" stroke-linejoin="round"/>
<path d="M111.428 213.237C135.446 210.371 164.387 193.154 180.035 182.76C175.155 172.864 170.15 166.664 161.417 166.955C151.199 167.298 142.725 171.389 138.271 172.749C135.975 173.554 133.546 173.907 131.116 173.788C128.971 171.855 127.257 169.492 126.086 166.853C124.914 164.214 124.31 161.359 124.314 158.471C124.314 148.596 123.972 139.78 123.972 139.78C117.693 141.366 111.106 141.251 104.886 139.448C98.6669 137.645 93.0397 134.219 88.583 129.521C88.583 129.521 88.9256 153.684 86.5062 161.171C84.0867 168.658 75.9767 171.701 75.9767 171.701C75.9767 171.701 41.9378 164.214 35.1363 169.624C32.9868 171.337 30.9826 175.044 29.1239 179.437C44.97 190.838 84.2217 216.487 111.428 213.237Z" fill="white" stroke="#272D2F" stroke-width="2" stroke-linecap="round" stroke-linejoin="round"/>
<path d="M87.2122 134.474C87.2122 134.474 103.712 155.242 109.611 156.083C115.509 156.924 125.716 142.324 125.716 142.324C125.716 142.324 102.539 148.617 87.2122 134.474Z" fill="#272D2F" stroke="#272D2F" stroke-linecap="round" stroke-linejoin="round"/>
<path d="M70.8677 117.942C70.8677 117.942 71.5531 121.691 73.9829 123.051C76.4128 124.411 80.4418 123.051 80.4418 123.051C80.4418 123.051 86.2361 134.962 94.398 140.704C102.56 146.446 108.011 151.265 116.869 148.876C125.727 146.488 133.546 134.577 137.637 128.451C140.704 123.78 142.896 118.59 144.106 113.134C144.792 110.071 144.792 93.737 143.068 83.5191C141.344 73.3012 131.49 59.6981 125.363 54.9318C119.237 50.1655 113.11 48.1198 102.902 53.8934C92.695 59.6669 83.4947 69.2099 77.7108 84.869C71.9269 100.528 70.8677 108.752 70.8677 117.942Z" fill="white" stroke="#272D2F" stroke-linecap="round" stroke-linejoin="round"/>
<path d="M104.574 93.0929C104.574 93.0929 99.4654 88.6693 92.9962 93.4356" stroke="#272D2F" stroke-width="2" stroke-linecap="round" stroke-linejoin="round"/>
<path d="M122.611 91.0581C122.611 91.0581 129.081 87.6521 133.162 91.3904" stroke="#272D2F" stroke-width="2" stroke-linecap="round" stroke-linejoin="round"/>
<path d="M105.935 77.4338C105.935 77.4338 97.0771 73.0518 89.6213 83.2282" stroke="#272D2F" stroke-width="2" stroke-linecap="round" stroke-linejoin="round"/>
<path d="M120.566 76.7591C120.566 76.7591 129.081 71.3074 133.504 80.4973" stroke="#272D2F" stroke-width="2" stroke-linecap="round" stroke-linejoin="round"/>
<path d="M122.611 95.8242C122.611 95.8242 123.286 100.248 117.502 102.626" stroke="#272D2F" stroke-linecap="round" stroke-linejoin="round"/>
<path d="M102.186 103.986C102.186 103.986 102.186 112.833 97.7625 116.582" stroke="#272D2F" stroke-linecap="round" stroke-linejoin="round"/>
<path d="M102.186 109.396C105.9 111.286 109.944 112.439 114.097 112.792C121.251 113.477 124.989 111.099 127.378 108.036" stroke="#272D2F" stroke-width="2" stroke-linecap="round" stroke-linejoin="round"/>
<path d="M118.53 55.3161C118.53 55.3161 130.098 57.694 136.183 75.3988C140.613 88.3411 143.022 101.888 143.328 115.564C143.328 115.564 152.185 111.473 150.14 92.4183C148.094 73.3635 143.328 63.1456 135.841 56.6764C128.354 50.2071 121.552 48.5041 119.507 49.1895C117.461 49.8748 112.404 49.8644 118.53 55.3161Z" fill="#FFC529" stroke="#272D2F" stroke-linecap="round" stroke-linejoin="round"/>
<path d="M120.566 55.6587C120.566 55.6587 110.524 54.3296 102.529 59.0543C91.3451 65.669 82.664 79.6771 78.5831 91.5876C74.5021 103.498 70.8677 117.942 70.8677 117.942C70.8677 117.942 69.1751 112.158 68.4898 99.251C67.8044 86.3436 75.094 69.3657 84.9693 60.5081C94.8445 51.6505 105.935 46.5 113.079 46.5C120.223 46.5 126.017 50.8925 120.566 55.6587Z" fill="#FFC529" stroke="#272D2F" stroke-linecap="round" stroke-linejoin="round"/>
<path d="M70.6288 115.741C70.6288 115.741 77.1916 71.3281 90.3585 56.645" stroke="#272D2F" stroke-linecap="round" stroke-linejoin="round"/>
<path d="M140.503 62.8237C140.503 62.8237 148.499 92.2002 143.338 115.564" stroke="#272D2F" stroke-linecap="round" stroke-linejoin="round"/>
<path d="M131.313 162.355C130.82 163.111 130.177 163.758 129.423 164.255C125.675 166.643 125.675 162.552 125.675 162.552C125.226 163.855 124.408 165 123.32 165.846C122.232 166.692 120.922 167.204 119.548 167.318C114.782 167.661 115.467 164.255 115.467 164.255C115.135 165.534 114.384 166.665 113.334 167.467C112.283 168.269 110.994 168.695 109.673 168.678C104.907 168.678 106.61 166.301 106.61 166.301C106.61 166.301 101.511 167.661 99.1227 164.598C98.631 164.026 98.2809 163.346 98.1005 162.613C97.9201 161.881 97.9145 161.117 98.0843 160.382C97.4405 161.254 96.2256 161.97 93.993 160.849C90.8778 159.302 91.9162 155.408 92.5808 153.58C87.4573 156.519 83.3402 160.936 80.7683 166.253C78.1965 171.57 77.2896 177.54 78.1664 183.381C79.0431 189.222 81.6627 194.662 85.6824 198.99C89.702 203.318 94.9344 206.331 100.695 207.636C106.455 208.941 112.476 208.477 117.968 206.304C123.46 204.131 128.169 200.351 131.477 195.458C134.786 190.565 136.54 184.787 136.511 178.881C136.482 172.975 134.67 167.214 131.313 162.355V162.355ZM107.274 185.428C106.039 185.444 104.826 185.093 103.79 184.419C102.755 183.744 101.943 182.777 101.459 181.64C100.975 180.503 100.84 179.248 101.07 178.034C101.301 176.82 101.888 175.702 102.756 174.822C103.624 173.942 104.734 173.341 105.945 173.094C107.156 172.846 108.412 172.965 109.556 173.434C110.699 173.903 111.677 174.701 112.365 175.728C113.054 176.754 113.421 177.962 113.422 179.198C113.422 180.836 112.777 182.408 111.626 183.574C110.476 184.74 108.912 185.406 107.274 185.428Z" fill="white" stroke="#272D2F" stroke-linecap="round" stroke-linejoin="round"/>
<path d="M129.423 164.234C125.675 166.623 125.675 162.531 125.675 162.531C125.226 163.835 124.408 164.979 123.32 165.825C122.232 166.672 120.922 167.183 119.548 167.298C114.782 167.64 115.467 164.234 115.467 164.234C115.135 165.513 114.384 166.644 113.334 167.446C112.283 168.248 110.994 168.675 109.673 168.658C104.907 168.658 106.61 166.28 106.61 166.28C106.61 166.28 101.511 167.64 99.1227 164.577C98.6311 164.005 98.2809 163.325 98.1005 162.593C97.9201 161.861 97.9146 161.096 98.0843 160.361C97.4405 161.233 96.2256 161.95 93.993 160.828C90.8778 159.281 91.9162 155.387 92.5808 153.56C89.7605 155.225 87.2372 157.348 85.1146 159.842C85.6546 160.413 85.7584 161.919 83.9516 165.865C80.4003 173.57 77.7212 180.984 81.8748 183.943C86.0284 186.903 89.8809 190.766 89.8809 197.879C89.9109 200.051 90.4516 202.185 91.4593 204.109C95.0885 206.479 99.2061 207.998 103.505 208.553C107.658 206.477 112.186 204.462 117.149 206.196C117.575 206.342 117.98 206.477 118.385 206.581C122.057 205.048 125.378 202.783 128.146 199.924C129.039 193.808 125.986 187.059 131.978 182.78C133.587 181.628 135.093 180.558 136.516 179.457V179.187C136.536 173.166 134.725 167.281 131.324 162.313C130.83 163.078 130.183 163.732 129.423 164.234ZM107.274 185.428C106.039 185.445 104.826 185.093 103.79 184.419C102.755 183.744 101.943 182.777 101.459 181.64C100.975 180.503 100.84 179.248 101.07 178.034C101.301 176.82 101.888 175.702 102.756 174.822C103.624 173.943 104.734 173.341 105.945 173.094C107.156 172.847 108.413 172.965 109.556 173.434C110.699 173.903 111.677 174.702 112.365 175.728C113.054 176.754 113.421 177.962 113.422 179.198C113.422 180.836 112.777 182.408 111.626 183.574C110.476 184.74 108.912 185.406 107.274 185.428Z" fill="#FE724C" stroke="#272D2F" stroke-width="2" stroke-linecap="round" stroke-linejoin="round"/>
<path d="M124.927 201.056C124.776 200.878 124.586 200.736 124.372 200.643C124.158 200.549 123.925 200.506 123.691 200.516C123.982 199.478 124.387 198.18 124.73 196.975C125.353 194.992 126.059 192.749 126.703 190.319C127.066 188.98 127.606 186.944 126.09 186.166C124.574 185.387 123.183 186.799 120.285 190.06C118.447 192.136 114.232 196.861 112.612 196.747C112.373 195.407 114.782 190.724 116.391 187.599C118.79 182.915 121.272 178.087 121.417 174.598C121.48 173.175 121.023 172.303 120.057 172.002C118.375 171.472 117.233 172.916 113.422 178.938C113.422 179.042 113.422 179.146 113.422 179.239C113.424 180.477 113.057 181.686 112.369 182.715C111.682 183.743 110.703 184.543 109.559 185.013C105.883 190.693 101.179 197.37 98.6659 197.588H98.3128C98.1274 197.591 97.9425 197.57 97.7625 197.526C97.129 196.29 100.452 190.444 102.238 187.297C102.799 186.259 103.349 185.335 103.858 184.4C103.013 183.825 102.323 183.05 101.849 182.144C101.374 181.239 101.13 180.231 101.137 179.208C101.137 178.969 101.137 178.731 101.137 178.492C100.307 179.136 99.3097 179.946 98.1051 180.953C95.9442 182.863 93.6351 184.599 91.1997 186.145C92.7016 183.482 94.3375 180.896 96.101 178.398C98.2415 175.391 100.191 172.253 101.937 169.001C102.394 168.255 102.581 167.375 102.466 166.509C101.592 166.375 100.76 166.041 100.037 165.533C98.8528 166.187 97.0875 168.212 93.3181 172.542C91.3867 174.743 88.718 177.796 87.0877 179.426C88.0178 176.876 89.121 174.392 90.3898 171.991C92.3832 167.957 94.8854 164.195 97.8352 160.797C97.9271 160.693 98.0008 160.573 98.0532 160.444C97.399 161.306 96.1945 161.981 93.9931 160.88L93.8061 160.766C91.4079 163.829 89.3208 167.123 87.5757 170.6C83.2871 179.167 83.0587 181.42 84.1282 182.76C84.4329 183.122 84.8395 183.384 85.2951 183.511C85.7507 183.639 86.2342 183.627 86.6827 183.476C87.7211 183.217 89.1748 181.877 92.4874 178.18C88.2403 184.515 86.88 187.038 87.9288 188.751C88.1893 189.142 88.5615 189.445 88.9968 189.621C89.432 189.797 89.9102 189.838 90.369 189.738C92.6535 189.426 95.8414 186.913 100.088 183.403L101.428 182.303C100.836 183.403 100.172 184.577 99.4862 185.792C95.6857 192.49 93.4946 196.737 95.0938 199.291C95.5818 200.07 96.641 200.953 98.8839 200.766C103.297 200.392 108.531 192.573 114.917 182.396C115.571 181.358 116.277 180.226 116.994 179.167C116.07 181.41 114.782 183.912 113.588 186.249C110.473 192.355 108.728 195.927 109.777 198.222C109.959 198.624 110.232 198.979 110.574 199.258C110.916 199.538 111.319 199.734 111.75 199.831C114.813 200.599 118.323 196.996 122.58 192.199L123.11 191.607C122.643 193.227 122.165 194.722 121.729 196.145C120.088 201.389 119.476 203.351 121.044 204.379C121.348 204.592 121.711 204.704 122.082 204.701H122.404C123.346 204.114 124.257 203.48 125.135 202.801C125.277 202.522 125.333 202.208 125.296 201.897C125.259 201.586 125.131 201.294 124.927 201.056Z" fill="white" stroke="#272D2F" stroke-linecap="round" stroke-linejoin="round"/>
<path d="M65.2084 211.326C66.8946 209.615 68.745 208.075 70.7327 206.726C72.8095 205.584 76.9631 200.755 78.5519 197.765C80.1406 194.774 81.3037 192.012 82.4563 194.545C83.1164 196.005 83.4193 197.601 83.3399 199.201C83.2604 200.801 82.8009 202.359 81.9994 203.746C80.1614 206.726 74.8655 211.555 73.6921 212.936C72.5187 214.317 70.2343 220.069 70.2343 220.069C69.213 220.113 68.1967 219.905 67.275 219.463C66.3532 219.021 65.5543 218.359 64.9488 217.536C63.142 214.784 63.142 213.403 65.2084 211.326Z" fill="#C2C2C2" stroke="#272D2F" stroke-linecap="round" stroke-linejoin="round"/>
<path d="M78.6973 189.083C78.6973 189.083 64.0662 195.21 62.3632 198.273C60.6602 201.337 53.8587 213.932 53.516 217.681C53.1733 221.43 59.2999 223.122 64.7411 238.449C65.6342 240.952 62.6643 242.873 61.6778 244.576C60.6914 246.279 32.4052 271.803 21.5123 280.66C10.6195 289.518 1.09729 303.505 1.09729 311.293C1.09729 319.081 9.60183 329.673 18.1168 330.358C26.6317 331.044 35.1362 325.249 41.2628 313.671C47.3894 302.093 72.5707 260.235 75.9767 255.521C79.3827 250.806 82.1033 247.348 82.4459 242.25C82.6476 238.961 82.6476 235.663 82.4459 232.374C82.4459 232.374 95.7168 213.995 95.7168 211.949C95.7168 209.903 99.8081 205.148 99.1227 203.445C98.4374 201.742 96.7448 202.759 95.0418 204.119C93.3388 205.48 74.6164 219.104 74.6164 219.104C74.6164 219.104 82.1033 206.508 84.1489 204.805C86.1946 203.102 92.6535 197.318 91.6358 195.958C90.6182 194.597 89.2579 194.919 87.2122 196.633C85.1666 198.346 77.337 203.445 75.3017 206.165C73.2665 208.886 65.4265 214.275 65.4265 214.275C65.4265 214.275 66.7868 205.417 68.8325 202.022C70.8781 198.626 80.4003 194.867 81.7606 192.147C83.1209 189.426 81.0856 187.723 78.6973 189.083Z" fill="white" stroke="#272D2F" stroke-width="2" stroke-linecap="round" stroke-linejoin="round"/>
<path d="M57.95 223.102C58.7236 224.517 59.7847 225.755 61.0652 226.736C62.3135 227.673 63.7206 228.376 65.2188 228.813C65.2188 228.813 68.334 230.89 70.4108 232.447C71.8648 233.487 73.4325 234.358 75.0836 235.043" stroke="#272D2F" stroke-linecap="round" stroke-linejoin="round"/>
<path d="M95.4779 211.16C95.4779 211.16 81.0856 223.506 78.365 225.884Z" fill="white"/>
<path d="M95.4779 211.16C95.4779 211.16 81.0856 223.506 78.365 225.884" stroke="#272D2F" stroke-linecap="round" stroke-linejoin="round"/>
<path d="M157.699 200.693C157.699 200.693 150.898 194.462 147.502 192.095C144.106 189.727 137.502 186.29 135.695 187.09C133.889 187.889 134.657 189.094 135.903 190.091C137.149 191.088 140.057 192.894 143.701 195.283C147.346 197.671 157.502 202.084 157.502 202.084C157.502 202.084 159.506 202.853 157.699 200.693Z" fill="#C2C2C2" stroke="#272D2F" stroke-linecap="round" stroke-linejoin="round"/>
<path d="M131.158 198.959C131.158 198.959 129.465 195.553 131.843 195.21C133.083 194.989 134.352 194.989 135.592 195.21C135.592 195.21 135.093 191.929 136.121 190.911C137.149 189.893 139.693 190.62 141.729 192.666C143.764 194.712 160.773 200.662 161.116 204.743C161.458 208.823 142.424 245.926 142.424 245.926C142.424 245.926 173.4 272.478 182.922 278.604C192.444 284.731 209.806 292.903 211.509 301.449C213.212 309.995 209.806 317.794 201.302 319.829C192.797 321.864 190.752 322.56 180.534 314.388C170.316 306.215 137.959 266.393 132.206 256.517C126.454 246.642 126.755 246.995 127.44 239.841C128.125 232.686 131.864 218.74 131.864 218.74C129.844 215.685 128.027 212.5 126.422 209.208C124.346 204.784 124.719 202.738 126.422 201.721C127.809 201.02 129.305 200.559 130.846 200.36L131.158 198.959Z" fill="white" stroke="#272D2F" stroke-width="2" stroke-linecap="round" stroke-linejoin="round"/>
<path d="M130.784 238.439L137.243 221.077L128.042 200.662C128.042 200.662 128.385 198.585 131.106 198.959C133.826 199.332 144.896 211.845 146.599 213.548C148.302 215.251 147.45 221.762 145.062 227.203" fill="white"/>
<path d="M130.784 238.439L137.243 221.077L128.042 200.662C128.042 200.662 128.385 198.585 131.106 198.959C133.826 199.332 144.896 211.845 146.599 213.548C148.302 215.251 147.45 221.762 145.062 227.203" stroke="#272D2F" stroke-linecap="round" stroke-linejoin="round"/>
<path d="M135.55 195.21L153.275 205.127C156.079 206.705 157.481 208.637 156.256 212.666" stroke="#272D2F" stroke-linecap="round" stroke-linejoin="round"/>
<path d="M104.512 119.874C104.512 120.12 104.439 120.361 104.302 120.566C104.165 120.771 103.971 120.93 103.743 121.025C103.515 121.119 103.265 121.144 103.023 121.096C102.781 121.048 102.559 120.929 102.385 120.755C102.211 120.58 102.092 120.358 102.044 120.117C101.996 119.875 102.02 119.624 102.115 119.397C102.209 119.169 102.369 118.974 102.574 118.837C102.779 118.701 103.02 118.627 103.266 118.627C103.596 118.63 103.911 118.762 104.144 118.995C104.377 119.229 104.509 119.544 104.512 119.874V119.874Z" fill="#FE724C" stroke="#272D2F" stroke-linecap="round" stroke-linejoin="round"/>
<path d="M96.9005 121.878C97.2446 121.878 97.5236 121.599 97.5236 121.255C97.5236 120.911 97.2446 120.632 96.9005 120.632C96.5564 120.632 96.2775 120.911 96.2775 121.255C96.2775 121.599 96.5564 121.878 96.9005 121.878Z" fill="#FE724C" stroke="#272D2F" stroke-linecap="round" stroke-linejoin="round"/>
</svg>
